# xmcd CD database file generated by MAGIX-FreeDB-MP3_Maker_12 v2.0beta1
# 
# Track frame offsets:
#      150
#      9472
#      23627
#      39377
#      67874
#      98737
#      133961
#      156869
#      174811
#      189214
#      205566
#      226505
#      252940
# 
# Disc length: 3725 seconds
# 
# Revision: 1 
# Processed by: cddbd v1.5.2PL0 Copyright (c) Steve Scherf et al.
# Submitted via: MAGIX-FreeDB-MP3_Maker_12 v2.0beta1
# 
DISCID=8e0e8b0d
DTITLE=Jon Lord and The Hoochie Coochie Men - Live At The Basement CD 1
DYEAR=2008
DGENRE=Blues
TTITLE0=Jon Lord and The Hoochie Coochie Men - Introduction
TTITLE1=Jon Lord and The Hoochie Coochie Men - Hideaway
TTITLE2=Jon Lord and The Hoochie Coochie Men - Lonesome Traveller Blues
TTITLE3=Jon Lord and The Hoochie Coochie Men - Blues With A Feeling
TTITLE4=Jon Lord and The Hoochie Coochie Men - You Got Good Business
TTITLE5=Jon Lord and The Hoochie Coochie Men - Green Onions
TTITLE6=Jon Lord and The Hoochie Coochie Men - 24/7 Blues
TTITLE7=Jon Lord and The Hoochie Coochie Men - Baby Please Don't Go
TTITLE8=Jon Lord and The Hoochie Coochie Men - The Money Doesn't Matter
TTITLE9=Jon Lord and The Hoochie Coochie Men - Strange Brew
TTITLE10=Jon Lord and The Hoochie Coochie Men - Dallas
TTITLE11=Jon Lord and The Hoochie Coochie Men - I Just Wanna Make Love To You
TTITLE12=Jon Lord and The Hoochie Coochie Men - You Need Love
EXTD=YEAR: 2008
EXTT0=
EXTT1=
EXTT2=
EXTT3=
EXTT4=
EXTT5=
EXTT6=
EXTT7=
EXTT8=
EXTT9=
EXTT10=
EXTT11=
EXTT12=
PLAYORDER=
